<svg width="1664" height="504" viewBox="0 0 1664 504" fill="none" xmlns="http://www.w3.org/2000/svg">
<rect width="509" height="504" rx="127" fill="#F97316"/>
<path d="M279.566 304.408C275.678 305.92 271.25 306.784 266.282 307C261.422 307.216 256.886 306.676 252.674 305.38C248.462 303.976 244.736 301.87 241.496 299.062C235.88 294.418 232.262 288.64 230.642 281.728C229.022 274.816 228.968 268.606 230.48 263.098C231.992 257.59 234.26 252.244 237.284 247.06C240.416 241.768 243.764 237.34 247.328 233.776C251 230.104 255.212 227.026 259.964 224.542C264.716 222.058 269.684 220.87 274.868 220.978C280.052 220.978 285.506 222.382 291.23 225.19C292.094 225.622 293.012 226.27 293.984 227.134C295.064 227.998 295.982 228.754 296.738 229.402L298.844 231.508C299.492 232.156 299.816 232.534 299.816 232.642C301.544 234.154 302.462 236.098 302.57 238.474C303.974 244.954 304.892 251.758 305.324 258.886C305.756 266.014 305.864 272.71 305.648 278.974C305.54 285.238 305.648 291.88 305.972 298.9C306.08 301.06 305.378 302.95 303.866 304.57C302.354 306.19 300.464 307.054 298.196 307.162C295.928 307.27 293.984 306.568 292.364 305.056C290.744 303.544 289.88 301.708 289.772 299.548V297.118C286.532 300.466 283.13 302.896 279.566 304.408ZM272.276 289.828C273.896 289.396 275.192 288.964 276.164 288.532C277.136 288.1 278.324 287.452 279.728 286.588C281.24 285.724 282.806 284.644 284.426 283.348C286.046 282.052 287.504 280.432 288.8 278.488C289.016 278.272 289.286 278.056 289.61 277.84C289.61 263.26 288.692 251.542 286.856 242.686C286.532 242.254 286.154 241.876 285.722 241.552C285.398 241.12 285.128 240.796 284.912 240.58C284.804 240.364 284.588 240.202 284.264 240.094C284.048 239.878 283.778 239.662 283.454 239.446C278.27 236.638 272.816 236.584 267.092 239.284C261.368 241.876 256.346 246.79 252.026 254.026C247.706 261.37 245.546 267.796 245.546 273.304C245.654 278.704 247.76 283.186 251.864 286.75C254.348 288.802 257.426 290.098 261.098 290.638C264.77 291.178 268.496 290.908 272.276 289.828Z" fill="white"/>
<rect x="335" y="135" width="46" height="46" rx="12" fill="white"/>
<rect x="224" y="83" width="81" height="81" rx="12" fill="white"/>
<rect x="116" y="161" width="91" height="91" rx="20" fill="white"/>
<rect x="138" y="288" width="56" height="56" rx="13" fill="white"/>
<rect x="203" y="363" width="66" height="66" rx="15" fill="white"/>
<path d="M746.702 471.644C734.466 471.859 722.444 469.712 710.638 465.204C699.046 460.696 689.493 454.149 681.98 445.562C674.252 436.546 669.1 425.813 666.524 413.362C664.162 400.697 664.055 388.675 666.202 377.298C668.563 365.921 672.427 354.973 677.794 344.454C682.087 336.511 687.239 329.427 693.25 323.202C699.26 316.762 706.237 311.395 714.18 307.102C722.337 302.594 730.924 300.233 739.94 300.018C749.17 299.589 759.045 301.521 769.564 305.814C775.145 308.39 780.834 312.469 786.63 318.05L796.934 328.354C800.368 331.145 802.3 334.794 802.73 339.302C803.159 343.81 801.871 347.781 798.866 351.216C796.075 354.436 792.426 356.261 787.918 356.69C783.41 357.119 779.546 355.831 776.326 352.826C774.394 351.323 772.14 349.284 769.564 346.708L764.09 341.234C761.084 338.229 758.616 336.297 756.684 335.438C747.024 331.145 737.793 331.252 728.992 335.76C720.19 340.053 712.677 347.996 706.452 359.588C700.012 371.609 696.792 383.631 696.792 395.652C697.006 407.673 700.226 417.226 706.452 424.31C710.316 428.818 715.897 432.467 723.196 435.258C730.494 438.049 738.222 439.444 746.38 439.444C762.909 439.015 773.535 433.111 778.258 421.734L777.936 420.124V410.786C778.15 406.278 779.868 402.629 783.088 399.838C786.522 396.833 790.494 395.437 795.002 395.652C799.51 395.867 803.159 397.691 805.95 401.126C808.955 404.346 810.35 408.21 810.136 412.718V419.802C810.35 425.169 809.599 429.891 807.882 433.97C802.944 446.421 794.787 455.759 783.41 461.984C772.247 468.209 760.011 471.429 746.702 471.644ZM859.475 471C855.181 471 851.425 469.605 848.205 466.814C844.985 463.809 843.375 459.837 843.375 454.9L842.731 389.212C842.516 374.4 842.409 355.939 842.409 333.828V314.83C842.409 309.893 843.911 306.029 846.917 303.238C849.922 300.447 853.571 299.052 857.865 299.052C862.373 299.052 866.237 300.555 869.457 303.56C872.891 306.351 874.609 310.322 874.609 315.474V325.134C876.97 319.982 881.371 315.581 887.811 311.932C896.612 306.565 906.272 303.882 916.791 303.882C924.733 303.882 930.851 305.17 935.145 307.746C939.438 310.322 941.585 314.937 941.585 321.592C941.585 325.885 940.297 329.535 937.721 332.54C935.145 335.331 931.388 336.726 926.451 336.726C908.419 336.726 895.968 339.195 889.099 344.132C885.235 346.708 881.8 349.821 878.795 353.47C876.004 357.119 874.609 360.661 874.609 364.096L875.253 404.346L875.575 454.9C875.575 459.837 873.965 463.809 870.745 466.814C867.525 469.605 863.768 471 859.475 471ZM1029.75 470.356C1014.08 469.068 1000.34 465.633 988.531 460.052C976.939 454.471 968.138 447.923 962.127 440.41C956.331 432.897 952.038 425.705 949.247 418.836C946.671 411.752 945.061 404.883 944.417 398.228C943.988 391.359 944.524 382.557 946.027 371.824C947.744 363.023 951.072 354.329 956.009 345.742C960.946 336.941 967.386 329.213 975.329 322.558C983.486 315.689 993.254 310.537 1004.63 307.102C1016.22 303.453 1028.46 302.487 1041.34 304.204C1053.36 305.921 1064.42 310.215 1074.51 317.084C1084.59 323.739 1093.07 332.111 1099.94 342.2C1102.3 345.205 1104.24 348.211 1105.74 351.216C1107.46 354.007 1108.85 357.012 1109.93 360.232C1111 363.237 1111.75 365.599 1112.18 367.316C1112.61 368.819 1113.15 371.395 1113.79 375.044C1114.65 378.693 1115.18 381.269 1115.4 382.772C1116.26 386.851 1115.61 390.607 1113.47 394.042C1111.32 397.477 1108.32 399.838 1104.45 401.126C1101.88 402.629 1099.08 403.38 1096.08 403.38L1038.12 403.058C999.479 402.629 980.159 402.736 980.159 403.38H979.193C981.554 413.04 987.136 421.09 995.937 427.53C1004.74 433.755 1016.87 437.512 1032.32 438.8C1042.63 439.659 1049.6 439.659 1053.25 438.8C1059.26 437.297 1063.88 436.009 1067.1 434.936C1070.32 433.648 1073.97 432.038 1078.05 430.106C1082.13 428.603 1086.1 428.818 1089.96 430.75C1094.04 432.682 1096.83 435.687 1098.33 439.766C1099.84 443.845 1099.62 447.816 1097.69 451.68C1095.76 455.544 1092.86 458.442 1089 460.374C1085.56 462.306 1081.8 464.131 1077.73 465.848C1073.86 467.565 1068.39 469.068 1061.3 470.356C1054.22 471.429 1043.7 471.429 1029.75 470.356ZM980.481 371.824C992.932 371.395 1026.21 371.395 1080.3 371.824C1079.23 368.604 1076.97 364.525 1073.54 359.588C1063.66 345.635 1051.43 337.692 1036.83 335.76C1023.52 333.828 1011.72 336.511 1001.41 343.81C991.322 350.894 984.345 360.232 980.481 371.824ZM1026.21 282.308C1023.63 285.313 1019.87 286.709 1014.94 286.494C1010.21 286.279 1006.35 284.455 1003.34 281.02C1000.34 277.371 998.942 273.292 999.157 268.784C999.586 264.276 1001.52 260.734 1004.95 258.158L1028.14 232.398C1031.14 229.607 1034.9 228.319 1039.41 228.534C1043.92 228.534 1047.67 230.144 1050.68 233.364C1053.68 236.584 1055.08 240.555 1054.86 245.278C1054.86 250.001 1053.36 253.65 1050.36 256.226L1026.21 282.308ZM1272.72 471C1269.28 471 1266.17 470.034 1263.38 468.102C1260.59 466.17 1258.66 462.521 1257.58 457.154C1248.35 463.809 1238.69 468.102 1228.6 470.034C1214.65 472.61 1201.88 471.859 1190.28 467.78C1178.69 463.701 1168.92 456.939 1160.98 447.494C1146.6 430.75 1139.52 409.498 1139.73 383.738C1139.94 360.554 1147.46 340.59 1162.27 323.846C1180.09 303.882 1203.49 296.476 1232.47 301.628C1242.34 303.345 1249.85 305.599 1255.01 308.39L1254.36 256.87C1254.36 252.362 1255.86 248.498 1258.87 245.278C1262.09 242.058 1265.85 240.448 1270.14 240.448C1274.65 240.448 1278.51 242.058 1281.73 245.278C1284.95 248.283 1286.56 251.933 1286.56 256.226C1288.06 354.114 1288.82 420.339 1288.82 454.9C1288.82 459.408 1287.21 463.272 1283.99 466.492C1280.98 469.497 1277.22 471 1272.72 471ZM1222.81 438.478C1226.88 437.619 1231.18 436.117 1235.69 433.97C1240.19 431.823 1243.31 430.106 1245.02 428.818C1246.96 427.315 1248.35 426.027 1249.21 424.954C1250.28 423.881 1251.46 422.7 1252.75 421.412C1254.04 419.909 1255.22 417.655 1256.29 414.65C1256.29 387.387 1256.08 365.706 1255.65 349.606C1255.44 349.606 1255.22 349.499 1255.01 349.284C1245.99 341.556 1241.48 337.585 1241.48 337.37C1239.12 335.867 1234.18 334.472 1226.67 333.184C1209.5 330.179 1196.08 334.257 1186.42 345.42C1176.76 355.939 1171.93 368.711 1171.93 383.738C1171.72 401.555 1176.22 415.938 1185.45 426.886C1194.68 437.619 1207.14 441.483 1222.81 438.478ZM1331.08 455.544C1330.65 439.444 1330.65 414.757 1331.08 381.484C1331.72 348.211 1332.04 326.422 1332.04 316.118C1332.04 311.61 1333.54 307.853 1336.55 304.848C1339.77 301.628 1343.63 300.018 1348.14 300.018C1352.65 300.018 1356.41 301.628 1359.41 304.848C1362.63 307.853 1364.24 311.61 1364.24 316.118C1364.24 326.422 1363.92 348.103 1363.28 381.162C1362.85 414.221 1362.85 438.8 1363.28 454.9C1363.28 459.408 1361.77 463.272 1358.77 466.492C1355.76 469.712 1352.01 471.322 1347.5 471.322C1342.99 471.322 1339.13 469.819 1335.91 466.814C1332.69 463.809 1331.08 460.052 1331.08 455.544ZM1361.02 244.312C1364.67 247.961 1366.5 252.469 1366.5 257.836C1366.5 263.203 1364.67 267.711 1361.02 271.36C1357.37 275.009 1352.86 276.834 1347.5 276.834C1342.13 276.834 1337.62 275.009 1333.97 271.36C1330.32 267.711 1328.5 263.203 1328.5 257.836C1328.5 252.469 1330.32 247.961 1333.97 244.312C1337.62 240.663 1342.13 238.838 1347.5 238.838C1353.08 238.623 1357.59 240.448 1361.02 244.312ZM1459.67 470.034C1458.39 469.605 1455.7 468.961 1451.62 468.102C1447.76 467.243 1444.33 466.277 1441.32 465.204C1438.53 464.131 1435.2 462.628 1431.34 460.696C1427.69 458.549 1424.36 455.759 1421.36 452.324C1418.35 448.675 1415.78 444.381 1413.63 439.444C1411.27 433.648 1409.76 422.271 1409.12 405.312C1408.48 392.217 1408.37 375.366 1408.8 354.758C1408.8 350.894 1408.91 344.454 1409.12 335.438L1406.54 335.76C1402.04 336.189 1398.07 335.009 1394.63 332.218C1391.2 329.427 1389.16 325.885 1388.51 321.592C1388.08 317.084 1389.26 313.113 1392.05 309.678C1394.85 306.243 1398.39 304.204 1402.68 303.56L1410.09 302.916C1410.3 291.539 1410.62 280.054 1411.05 268.462C1411.27 263.954 1412.98 260.197 1416.2 257.192C1419.42 254.187 1423.29 252.791 1427.8 253.006C1432.3 253.221 1436.06 254.938 1439.07 258.158C1442.07 261.378 1443.47 265.242 1443.25 269.75L1442.29 300.34L1452.91 299.696C1457.42 299.481 1461.28 300.769 1464.5 303.56C1467.94 306.351 1469.76 310 1469.98 314.508C1470.41 319.016 1469.23 322.987 1466.44 326.422C1463.65 329.642 1460 331.467 1455.49 331.896L1441.32 332.54C1441.11 342.844 1441 350.357 1441 355.08C1440.57 375.259 1440.68 391.681 1441.32 404.346C1441.75 417.226 1442.39 424.632 1443.25 426.564C1444.11 428.496 1444.76 429.891 1445.18 430.75C1445.61 431.394 1446.37 432.145 1447.44 433.004C1448.73 433.648 1450.01 434.077 1451.3 434.292C1452.59 434.507 1454.95 435.151 1458.39 436.224C1462.04 437.083 1465.9 438.263 1469.98 439.766C1474.06 441.054 1477.06 443.737 1478.99 447.816C1481.14 451.68 1481.46 455.759 1479.96 460.052C1478.67 464.131 1475.99 467.243 1471.91 469.39C1468.05 471.322 1463.97 471.537 1459.67 470.034ZM1589.4 468.746C1561.06 475.615 1538.42 469.927 1521.46 451.68C1507.93 437.727 1499.56 419.802 1496.34 397.906C1493.98 380.733 1496.02 364.418 1502.46 348.962C1510.19 329.213 1522.42 314.615 1539.17 305.17C1542.6 303.238 1546.9 301.843 1552.05 300.984C1552.26 300.984 1553.77 300.877 1556.56 300.662C1557.63 300.447 1558.49 300.233 1559.13 300.018C1562.35 299.374 1565.57 299.696 1568.79 300.984C1569.65 300.984 1571.69 301.091 1574.91 301.306C1578.13 301.306 1580.28 301.413 1581.35 301.628C1582.42 301.628 1584.25 301.843 1586.82 302.272C1589.62 302.487 1591.87 302.809 1593.59 303.238L1599.7 305.492C1602.28 306.351 1604.75 307.424 1607.11 308.712C1609.47 310 1612.05 311.503 1614.84 313.22C1628.79 322.665 1638.45 335.975 1643.82 353.148C1649.19 370.107 1650.58 383.845 1648 394.364C1646.07 405.956 1642.64 416.797 1637.7 426.886C1632.76 436.761 1625.89 445.562 1617.09 453.29C1608.51 461.018 1599.28 466.17 1589.4 468.746ZM1579.42 435.258C1588.65 433.97 1596.48 429.247 1602.92 421.09C1609.58 412.718 1613.87 403.917 1615.8 394.686C1617.95 385.455 1617.2 375.366 1613.55 364.418C1610.12 353.255 1604.53 345.205 1596.81 340.268C1594.45 338.551 1592.51 337.37 1591.01 336.726C1589.51 335.867 1587.68 335.223 1585.54 334.794C1583.6 334.15 1581.99 333.828 1580.71 333.828C1579.63 333.828 1577.16 333.721 1573.3 333.506C1569.44 333.291 1566 333.077 1563 332.862C1562.35 332.862 1561.6 332.755 1560.74 332.54C1558.38 332.755 1557.09 332.862 1556.88 332.862L1554.62 333.506C1545.18 338.658 1537.88 346.923 1532.73 358.3C1527.79 369.463 1526.4 381.055 1528.54 393.076C1530.9 407.673 1536.16 418.729 1544.32 426.242C1553.12 434.399 1564.82 437.405 1579.42 435.258Z" fill="#F97316"/>
<path d="M760.446 200.848C752.718 203.853 743.917 205.571 734.042 206C724.382 206.429 715.366 205.356 706.994 202.78C698.622 199.989 691.216 195.803 684.776 190.222C673.613 180.991 666.422 169.507 663.202 155.768C659.982 142.029 659.875 129.686 662.88 118.738C665.885 107.79 670.393 97.164 676.404 86.86C682.629 76.3413 689.284 67.54 696.368 60.456C703.667 53.1573 712.039 47.0393 721.484 42.102C730.929 37.1647 740.804 34.8033 751.108 35.018C761.412 35.018 772.253 37.8087 783.63 43.39C785.347 44.2487 787.172 45.5367 789.104 47.254C791.251 48.9713 793.075 50.474 794.578 51.762L798.764 55.948C800.052 57.236 800.696 57.9873 800.696 58.202C804.131 61.2073 805.955 65.0713 806.17 69.794C808.961 82.674 810.785 96.198 811.644 110.366C812.503 124.534 812.717 137.843 812.288 150.294C812.073 162.745 812.288 175.947 812.932 189.9C813.147 194.193 811.751 197.95 808.746 201.17C805.741 204.39 801.984 206.107 797.476 206.322C792.968 206.537 789.104 205.141 785.884 202.136C782.664 199.131 780.947 195.481 780.732 191.188V186.358C774.292 193.013 767.53 197.843 760.446 200.848ZM745.956 171.868C749.176 171.009 751.752 170.151 753.684 169.292C755.616 168.433 757.977 167.145 760.768 165.428C763.773 163.711 766.886 161.564 770.106 158.988C773.326 156.412 776.224 153.192 778.8 149.328C779.229 148.899 779.766 148.469 780.41 148.04C780.41 119.06 778.585 95.7687 774.936 78.166C774.292 77.3073 773.541 76.556 772.682 75.912C772.038 75.0533 771.501 74.4093 771.072 73.98C770.857 73.5507 770.428 73.2287 769.784 73.014C769.355 72.5847 768.818 72.1553 768.174 71.726C757.87 66.1447 747.029 66.0373 735.652 71.404C724.275 76.556 714.293 86.3233 705.706 100.706C697.119 115.303 692.826 128.076 692.826 139.024C693.041 149.757 697.227 158.666 705.384 165.75C710.321 169.829 716.439 172.405 723.738 173.478C731.037 174.551 738.443 174.015 745.956 171.868ZM870.379 206C866.085 206 862.329 204.605 859.109 201.814C855.889 198.809 854.279 194.837 854.279 189.9L853.635 124.212C853.42 109.4 853.313 90.9387 853.313 68.828V49.83C853.313 44.8927 854.815 41.0287 857.821 38.238C860.826 35.4473 864.475 34.052 868.769 34.052C873.277 34.052 877.141 35.5547 880.361 38.56C883.795 41.3507 885.513 45.322 885.513 50.474V60.134C887.874 54.982 892.275 50.5813 898.715 46.932C907.516 41.5653 917.176 38.882 927.695 38.882C935.637 38.882 941.755 40.17 946.049 42.746C950.342 45.322 952.489 49.9373 952.489 56.592C952.489 60.8853 951.201 64.5347 948.625 67.54C946.049 70.3307 942.292 71.726 937.355 71.726C919.323 71.726 906.872 74.1947 900.003 79.132C896.139 81.708 892.704 84.8207 889.699 88.47C886.908 92.1193 885.513 95.6613 885.513 99.096L886.157 139.346L886.479 189.9C886.479 194.837 884.869 198.809 881.649 201.814C878.429 204.605 874.672 206 870.379 206ZM1042.91 207.61C1027.02 206.537 1013.17 203.317 1001.37 197.95C989.561 192.583 980.545 185.821 974.319 177.664C968.094 169.507 963.586 161.993 960.795 155.124C958.005 148.255 956.287 141.493 955.643 134.838C954.999 127.969 955.321 119.167 956.609 108.434C958.112 99.418 961.225 90.5093 965.947 81.708C970.885 72.9067 977.325 65.0713 985.267 58.202C993.425 51.118 1003.19 45.7513 1014.57 42.102C1025.95 38.238 1038.08 37.0573 1050.96 38.56C1063.41 40.0627 1074.03 43.4973 1082.83 48.864C1091.63 54.016 1099.15 60.6707 1105.37 68.828C1110.74 75.6973 1113.96 80.8493 1115.03 84.284C1116.32 87.7187 1117.39 90.9387 1118.25 93.944C1119.33 96.9493 1120.19 99.5253 1120.83 101.672C1121.47 103.819 1122.01 106.073 1122.44 108.434C1123.08 110.581 1123.51 113.157 1123.73 116.162C1123.94 120.241 1123.19 123.997 1121.47 127.432C1119.76 130.867 1117.18 133.55 1113.75 135.482C1110.95 136.555 1107.95 137.092 1104.73 137.092L1049.67 138.058C1011.03 138.273 991.707 138.702 991.707 139.346H990.741C993.532 150.294 999.328 158.881 1008.13 165.106C1017.15 171.331 1029.38 174.981 1044.84 176.054C1053.21 176.483 1060.19 176.054 1065.77 174.766C1071.99 173.049 1076.5 171.546 1079.29 170.258C1082.08 168.755 1085.52 166.823 1089.6 164.462C1093.67 162.959 1097.75 163.174 1101.83 165.106C1105.91 167.038 1108.7 170.043 1110.2 174.122C1111.71 178.201 1111.49 182.172 1109.56 186.036C1107.84 189.9 1105.05 192.905 1101.19 195.052C1097.75 196.984 1094.21 198.701 1090.56 200.204C1086.91 201.492 1081.55 203.102 1074.46 205.034C1067.38 206.966 1056.86 207.825 1042.91 207.61ZM991.385 107.79C1003.84 107.146 1036.14 106.502 1088.31 105.858C1086.38 99.418 1083.26 93.3 1078.97 87.504C1070.38 77.6293 1059.76 71.9407 1047.09 70.438C1033.78 68.7207 1022.08 71.6187 1011.99 79.132C1001.9 86.4307 995.035 95.9833 991.385 107.79ZM1188.7 206C1172.81 203.209 1161.33 196.769 1154.24 186.68C1150.81 182.172 1148.34 176.161 1146.84 168.648L1145.55 161.564C1145.12 159.417 1144.69 157.7 1144.26 156.412C1142.97 152.333 1143.4 148.362 1145.55 144.498C1147.7 140.634 1150.92 138.165 1155.21 137.092C1159.5 136.019 1163.58 136.448 1167.45 138.38C1171.31 140.312 1173.89 143.425 1175.17 147.718C1175.82 150.079 1176.46 152.763 1177.11 155.768C1177.32 156.841 1177.43 157.915 1177.43 158.988C1177.64 159.847 1178.07 161.457 1178.72 163.818C1179.36 166.609 1180.86 168.97 1183.22 170.902C1185.8 173.263 1189.66 174.766 1194.82 175.41C1203.4 177.127 1212.63 176.913 1222.51 174.766C1232.17 172.619 1239.68 169.507 1245.05 165.428C1248.91 161.993 1250.52 158.451 1249.88 154.802C1249.23 148.791 1245.48 144.283 1238.61 141.278C1234.32 139.346 1223.15 136.77 1205.12 133.55C1186.44 129.901 1173.24 125.178 1165.51 119.382C1151.35 108.863 1146.73 93.1927 1151.67 72.37C1154.67 60.3487 1160.79 51.5473 1170.02 45.966C1179.47 40.17 1189.88 36.95 1201.26 36.306C1210.92 35.8767 1220.68 37.0573 1230.56 39.848C1240.65 42.424 1249.23 46.0733 1256.32 50.796C1258.68 52.5133 1261.15 54.5527 1263.72 56.914C1266.3 59.2753 1268.77 61.8513 1271.13 64.642C1273.71 67.4327 1275.21 68.9353 1275.64 69.15C1278.86 72.37 1280.47 76.1267 1280.47 80.42C1280.47 84.4987 1278.86 88.148 1275.64 91.368C1272.63 94.3733 1268.88 95.876 1264.37 95.876C1260.08 95.876 1256.32 94.3733 1253.1 91.368C1250.95 89.436 1248.81 87.3967 1246.66 85.25L1242.15 79.776C1240.86 78.7027 1239.36 77.6293 1237.64 76.556C1233.56 73.98 1228.3 71.8333 1221.86 70.116C1215.42 68.184 1209.09 67.3253 1202.87 67.54C1191.49 68.184 1184.94 72.1553 1183.22 79.454C1181.29 87.182 1181.94 92.2267 1185.16 94.588C1189.02 97.3787 1197.71 100.169 1211.24 102.96C1231.2 106.395 1244.83 109.722 1252.13 112.942C1269.74 120.885 1279.72 133.657 1282.08 151.26C1284.01 165.643 1278.64 178.093 1265.98 188.612C1256.32 196.555 1244.08 202.029 1229.27 205.034C1215.1 208.254 1201.58 208.576 1188.7 206Z" fill="#F97316"/>
</svg>
